<?xml version="1.0" standalone="no"?><!DOCTYPE svg PUBLIC "-//W3C//DTD SVG 1.1//EN" "http://www.w3.org/Graphics/SVG/1.1/DTD/svg11.dtd"><svg t="1587797683552" class="icon" viewBox="0 0 1024 1024" version="1.1" xmlns="http://www.w3.org/2000/svg" p-id="1257" xmlns:xlink="http://www.w3.org/1999/xlink" width="20" height="20"><defs><style type="text/css"></style></defs><path d="M588.8 947.2h5.12H460.8V716.8h128v230.4z m394.24-409.6L568.32 102.4C552.96 87.04 532.48 76.8 512 76.8c-20.48 0-40.96 10.24-56.32 25.6L40.96 537.6c-12.8 15.36-17.92 43.52-10.24 64 7.68 20.48 25.6 38.4 43.52 38.4h92.16c5.12 0 12.8-10.24 12.8-2.56v225.28c0 46.08 28.16 84.48 71.68 84.48H384V698.88c0-28.16 38.4-33.28 66.56-33.28h148.48c28.16 0 66.56 5.12 66.56 33.28V947.2h107.52c43.52 0 71.68-38.4 71.68-84.48V634.88c0-5.12 7.68 5.12 12.8 5.12h92.16c20.48 0 35.84-20.48 43.52-38.4 7.68-20.48 5.12-51.2-10.24-64z" p-id="1258"></path></svg>