<?xml version="1.0" standalone="no"?><!DOCTYPE svg PUBLIC "-//W3C//DTD SVG 1.1//EN" "http://www.w3.org/Graphics/SVG/1.1/DTD/svg11.dtd"><svg t="1587797538923" class="icon" viewBox="0 0 1024 1024" version="1.1" xmlns="http://www.w3.org/2000/svg" p-id="1121" xmlns:xlink="http://www.w3.org/1999/xlink" width="20" height="20"><defs><style type="text/css"></style></defs><path d="M968.145455 579.490909c-6.981818 0-11.636364-2.327273-16.29091-6.981818l-442.181818-442.181818L72.145455 567.854545c-9.309091 9.309091-23.272727 9.309091-32.581819 0s-9.309091-23.272727 0-32.581818L509.672727 65.163636l474.763637 474.763637c9.309091 9.309091 9.309091 23.272727 0 32.581818-4.654545 4.654545-11.636364 6.981818-16.290909 6.981818z" fill="#343434" p-id="1122"></path><path d="M849.454545 958.836364H574.836364v-207.127273H442.181818v207.127273H174.545455V428.218182c0-13.963636 9.309091-23.272727 23.272727-23.272727s23.272727 9.309091 23.272727 23.272727v484.072727H395.636364v-207.127273h225.745454v207.127273h181.527273V414.254545c0-13.963636 9.309091-23.272727 23.272727-23.272727s23.272727 9.309091 23.272727 23.272727v544.581819z" fill="#343434" p-id="1123"></path></svg>