<?xml version="1.0" standalone="no"?><!DOCTYPE svg PUBLIC "-//W3C//DTD SVG 1.1//EN" "http://www.w3.org/Graphics/SVG/1.1/DTD/svg11.dtd"><svg t="1587798075792" class="icon" viewBox="0 0 1024 1024" version="1.1" xmlns="http://www.w3.org/2000/svg" p-id="4181" xmlns:xlink="http://www.w3.org/1999/xlink" width="20" height="20"><defs><style type="text/css"></style></defs><path d="M862.69188893 912.91408953H158.60576256c-14.55472867 0-29.10945849-7.27736434-38.20506112-18.19414756-9.09707378-12.73502037-12.73502037-27.28974905-9.09707264-41.84447772C147.69045163 667.30340238 298.69539897 529.03200427 480.6295131 514.47727559c7.27736434-1.81823829 12.73502037-1.81823829 21.83209301-1.81823829v18.19414755c-7.27736434 0-12.73502037 0-20.0123847 1.81823716-174.65822094 12.73502037-320.20551225 145.54729131-354.77262564 323.84345998-1.81970944 9.09707378 0 20.01238471 7.27736434 27.28974905 5.45765603 7.27736434 14.55472867 10.91531093 23.6503313 10.91531093h704.08612637c9.09707378 0 18.19267641-3.63794659 23.65180245-10.91531093 5.45912718-7.27736434 9.09707378-16.37443811 7.27736434-27.28974905-21.83209415-116.43783282-92.78603037-216.50122866-192.84942507-272.90190734-10.91678208-7.27736434-23.65180245-12.73502037-34.56858567-18.19414756l7.27736434-16.37296696c12.73502037 5.45765603 25.47004075 12.73502037 36.38682396 18.1926764 105.52105074 60.03862528 178.29469639 163.74143886 201.94649885 285.63692772 3.63941774 14.55472867 0 29.10945849-10.91531093 41.84447772-9.09413149 10.91678208-23.65033131 18.19414642-38.20506112 18.19414756zM507.9207333 530.85171371h-3.63941775v-18.19414756h5.45912719l-1.81970944 18.19414756z" fill="#cdcdcd" p-id="4182"></path><path d="M515.19809763 530.85171371c-114.61812451 0-209.22386432-94.60573981-209.22386318-209.22386432s94.60573981-209.22386432 209.22386318-209.22386318S724.42196195 207.00972487 724.42196195 321.62784939s-94.60573981 209.22386432-209.22386432 209.22386432z m0-400.25505224c-105.52105074 0-191.03118791 85.51013717-191.0311879 191.03118792s85.50866603 191.03118791 191.0311879 191.03118791 191.03118791-85.50866603 191.03118792-191.03118791S620.72061952 130.59666147 515.19809763 130.59666147z" fill="#cdcdcd" p-id="4183"></path></svg>